<svg xmlns="http://www.w3.org/2000/svg" xmlns:xlink="http://www.w3.org/1999/xlink" width="310.619" height="576.784" viewBox="0 0 310.619 576.784">
  <defs>
    <radialGradient id="radial-gradient" cx="0.5" cy="0.5" r="0.434" gradientTransform="translate(-0.204) scale(1.407 1)" gradientUnits="objectBoundingBox">
      <stop offset="0" stop-color="#fff"/>
      <stop offset="1" stop-color="#fff"/>
    </radialGradient>
  </defs>
  <g id="icone-cocorico" transform="translate(-192.774 -126.83)" opacity="0.042">
    <path id="Path_88" data-name="Path 88" d="M413.349,342.3c0,5.9-.22,11.778-.54,17.638s-.8,11.718-1.38,17.557-1.22,11.658-1.9,17.5-1.54,11.618-2.48,17.417v.36a2.92,2.92,0,0,1-1.34,2c-4.419,2.74-8.9,5.4-13.478,7.9a2.12,2.12,0,0,1-2.4-3.479c4-3.4,8-6.659,12.118-9.819l-1.4,2.34c.32-5.859.78-11.718,1.28-17.557s1.12-11.678,1.82-17.5,1.48-11.638,2.38-17.458,1.9-11.6,3.2-17.357a2.12,2.12,0,0,1,4.179.46Z" transform="translate(-105.48 267.8)" fill="#21120a"/>
    <path id="Path_89" data-name="Path 89" d="M394.852,394.167a46.455,46.455,0,0,1-.62-8.279v-4.1c0-1.36.18-2.72.3-4a4,4,0,0,1,7.019-2.2c1.9,2.24,3.739,4.519,5.439,6.959a50.554,50.554,0,0,1,4.619,7.659,2.18,2.18,0,0,1-3.2,2.74,53.06,53.06,0,0,1-6.859-5.719,69.928,69.928,0,0,1-6-6.439l7.019-2.2c-.14,1.36-.3,2.7-.52,4s-.42,2.7-.72,4a48.692,48.692,0,0,1-2.28,8,2.2,2.2,0,0,1-2.84,1.24,2.239,2.239,0,0,1-1.36-1.66Z" transform="translate(-100.302 301.761)" fill="#21120a"/>
    <path id="Path_87" data-name="Path 87" d="M458.546,338.289c.7,12.858.58,25.676.24,38.474-.18,6.4-.48,12.8-.8,19.2s-.78,12.8-1.3,19.177v.3a2.981,2.981,0,0,1-1,2c-4.719,4.239-9.5,8.459-14.458,12.458a2.126,2.126,0,0,1-2.979-3c4-4.939,8.339-9.639,12.638-14.318l-1.02,2.28c0-6.4.12-12.818.3-19.217s.42-12.8.78-19.2c.7-12.8,1.64-25.576,3.4-38.314a2.11,2.11,0,0,1,4.2.16Z" transform="translate(-56.77 263.872)" fill="#21120a"/>
    <path id="Path_90" data-name="Path 90" d="M443.4,400.534c-.18-2-.24-4-.26-5.859s0-4,0-5.839c.1-3.88.38-7.739.74-11.6a4,4,0,0,1,4.319-3.58,3.879,3.879,0,0,1,2.66,1.4h0a94.092,94.092,0,0,1,6,7.879c.96,1.38,1.88,2.76,2.74,4.2a45.327,45.327,0,0,1,2.44,4.459,2.18,2.18,0,0,1-1.08,2.88,2.14,2.14,0,0,1-2.16-.2,44.489,44.489,0,0,1-4-3.219c-1.24-1.12-2.44-2.28-3.6-3.46-2.34-2.38-4.519-4.879-6.619-7.459l7.039-2.12c-.46,3.839-.98,7.679-1.68,11.5-.32,1.9-.72,3.8-1.14,5.7s-.88,3.8-1.46,5.7a2.16,2.16,0,0,1-4.2-.44Z" transform="translate(-51.406 301.214)" fill="#21120a"/>
    <path id="Path_82" data-name="Path 82" d="M513.828,298.447c-1.36,2.5-2.78,4.919-4.2,7.259-11.378,18.777-23.7,36.915-34.955,55.792a2.8,2.8,0,0,1-1.22,1.28,2.68,2.68,0,0,1-2-.32C438.6,347.82,354.611,282.47,399.865,242.475c9.879-8.739,26-6.579,36.435,1.46s16.418,20.5,21.457,32.675a102.789,102.789,0,0,1,14.678-31.416c7.2-10.378,21.317-14.158,33.415-11.358C535.745,240.736,523.747,280.35,513.828,298.447Z" transform="translate(-107.753 160.555)" fill="#010101"/>
    <path id="Path_85" data-name="Path 85" d="M396.757,107.109l35.395,64.671,4.919,8.979c3.08,5.659,11.718.62,8.619-5.039l-35.375-64.671-4.919-8.979C402.316,96.41,393.677,101.449,396.757,107.109Z" transform="translate(-98.425 27.24)" fill="#272525"/>
    <path id="Path_83" data-name="Path 83" d="M462.645,102.107,427.27,166.758l-4.939,9c-3.1,5.639,5.539,10.7,8.619,5.039l35.375-64.651,4.919-9c3.08-5.639-5.539-10.7-8.639-5.039Z" transform="translate(-72.867 27.282)" fill="#272525"/>
    <path id="Path_86" data-name="Path 86" d="M417.37,111.179l5.039,73.529.7,10.239a5.119,5.119,0,0,0,5,5,5.059,5.059,0,0,0,5-5L428.068,121.4l-.7-10.219a5.139,5.139,0,0,0-5-5,5.019,5.019,0,0,0-5,5Z" transform="translate(-77.165 33.828)" fill="#272525"/>
    <path id="Path_81" data-name="Path 81" d="M497.955,565.936a132.334,132.334,0,0,0,28.2-2.64,159.976,159.976,0,0,0,38.274-14A127.781,127.781,0,0,0,614.818,503.2c37.395-57.892,43.494-133.981,26.856-200.531-6.379-25.576-15.2-51.093-27.7-73.989-19.5-35.755-43.494-71.57-81.568-86.228s-79.089-3.6-108.3,25.6c-17.2,17.158-31,39.054-42.734,60.631-12.538,22.957-21.337,48.473-27.716,73.989-16.578,66.63-10.578,142.64,26.856,200.531A127.662,127.662,0,0,0,430.9,549.3,156.358,156.358,0,0,0,497.955,565.936Z" transform="translate(-149.59 63.642)" stroke="#272525" stroke-miterlimit="10" stroke-width="5" fill="url(#radial-gradient)"/>
    <path id="Path_84" data-name="Path 84" d="M506.659,283.427c-1.26,2.3-2.58,4.539-3.9,6.719-10.539,17.4-22,34.2-32.4,51.693a2.478,2.478,0,0,1-1.12,1.18,2.4,2.4,0,0,1-1.8-.3c-30.456-13.558-108.284-74.149-66.35-111.184,9.159-8,24.1-6.1,33.775,1.36s15.218,19,19.877,30.276a95.227,95.227,0,0,1,13.6-29.116c6.679-9.619,19.757-13.118,30.976-10.518C527.016,229.934,515.838,266.629,506.659,283.427Z" transform="translate(-105.563 150.319)" fill="#21120a"/>
  </g>
</svg>
