<svg xmlns="http://www.w3.org/2000/svg" width="312" height="126" viewBox="0 0 312 126">
  <g id="logo-cocorico" transform="translate(-164.5 -83.5)">
    <g id="Group_22" data-name="Group 22" transform="translate(-14.777 2)">
      <path id="Path_91" data-name="Path 91" d="M307.059,439.57a17.343,17.343,0,0,1-2.671,1.59,24.721,24.721,0,0,1-4.77,1.8,22.149,22.149,0,0,1-6.257.716,24.813,24.813,0,0,1-9.349-1.852,20.177,20.177,0,0,1-6.972-4.842,21.013,21.013,0,0,1-4.357-7.028,23.565,23.565,0,0,1-1.5-8.475,26.935,26.935,0,0,1,1.526-9.254,21.26,21.26,0,0,1,4.389-7.274,19.813,19.813,0,0,1,6.821-4.77,22.26,22.26,0,0,1,8.745-1.685,23.749,23.749,0,0,1,7.879,1.2,27.445,27.445,0,0,1,5.565,2.584l-3.426,8.236a25.353,25.353,0,0,0-3.975-2.385,12.83,12.83,0,0,0-5.74-1.232,11.6,11.6,0,0,0-4.842,1.057,12.649,12.649,0,0,0-4.086,2.973,14.31,14.31,0,0,0-2.79,4.476,14.763,14.763,0,0,0-1.026,5.565,17.492,17.492,0,0,0,.93,5.835,12.992,12.992,0,0,0,2.679,4.54,11.806,11.806,0,0,0,4.174,2.91,14.049,14.049,0,0,0,5.5,1.026,14.66,14.66,0,0,0,6.074-1.145,13.617,13.617,0,0,0,3.84-2.385Z" transform="translate(-55.4 -292.901)" fill="#4e4612"/>
      <path id="Path_94" data-name="Path 94" d="M323,434.2a13.905,13.905,0,0,1,1.892-7.211,13.4,13.4,0,0,1,5.327-5.017,16.385,16.385,0,0,1,7.871-1.837,15.845,15.845,0,0,1,7.815,1.837,12.8,12.8,0,0,1,5.08,5.017,15.614,15.614,0,0,1,0,14.453,12.9,12.9,0,0,1-5.08,5.08,15.9,15.9,0,0,1-7.95,1.868,17.2,17.2,0,0,1-7.728-1.685,12.656,12.656,0,0,1-5.319-4.873A14.509,14.509,0,0,1,323,434.2Zm8.475.064a8.11,8.11,0,0,0,.843,3.7,6.9,6.9,0,0,0,2.282,2.616,5.78,5.78,0,0,0,3.252.962,6.082,6.082,0,0,0,3.427-.962,6.312,6.312,0,0,0,2.218-2.616,9.151,9.151,0,0,0,0-7.425,6.36,6.36,0,0,0-2.21-2.56,6.018,6.018,0,0,0-3.426-.962,5.724,5.724,0,0,0-3.252.962,6.916,6.916,0,0,0-2.282,2.584,8.053,8.053,0,0,0-.883,3.7Z" transform="translate(-66.021 -297.337)" fill="#4e4612"/>
      <path id="Path_95" data-name="Path 95" d="M390.472,445.469a13.76,13.76,0,0,1-4.357,2.226,16.847,16.847,0,0,1-5.136.843,17.553,17.553,0,0,1-7.847-1.654,12.115,12.115,0,0,1-5.168-4.77,14.4,14.4,0,0,1-1.836-7.481,13.515,13.515,0,0,1,1.988-7.481,13.03,13.03,0,0,1,5.2-4.722,14.794,14.794,0,0,1,6.758-1.59,17.933,17.933,0,0,1,6.161.962,15,15,0,0,1,4.484,2.528l-4.094,5.406a12.106,12.106,0,0,0-2.314-1.352,8.021,8.021,0,0,0-3.45-.692,5.923,5.923,0,0,0-3.18.9,6.431,6.431,0,0,0-2.282,2.465,7.489,7.489,0,0,0-.843,3.609,7.235,7.235,0,0,0,.9,3.546,6.638,6.638,0,0,0,2.5,2.552,7.227,7.227,0,0,0,3.752.938,8.039,8.039,0,0,0,2.56-.4,5.932,5.932,0,0,0,2.011-1.105Z" transform="translate(-74.862 -297.481)" fill="#4e4612"/>
      <path id="Path_96" data-name="Path 96" d="M402.348,434.2a13.834,13.834,0,0,1,1.892-7.211,13.435,13.435,0,0,1,5.319-5.017,16.385,16.385,0,0,1,7.871-1.836,15.845,15.845,0,0,1,7.815,1.836,12.8,12.8,0,0,1,5.08,5.017,15.615,15.615,0,0,1,0,14.453,12.9,12.9,0,0,1-5.08,5.08,15.9,15.9,0,0,1-7.95,1.868,17.14,17.14,0,0,1-7.72-1.685,12.561,12.561,0,0,1-5.319-4.873A14.438,14.438,0,0,1,402.348,434.2Zm8.475.064a8.007,8.007,0,0,0,.843,3.7,6.766,6.766,0,0,0,2.282,2.616,5.756,5.756,0,0,0,3.244.962,6.081,6.081,0,0,0,3.427-.962,6.359,6.359,0,0,0,2.226-2.616,9.239,9.239,0,0,0,0-7.425,6.4,6.4,0,0,0-2.226-2.584,6.018,6.018,0,0,0-3.427-.962,5.7,5.7,0,0,0-3.244.962,6.782,6.782,0,0,0-2.282,2.584,7.951,7.951,0,0,0-.851,3.729Z" transform="translate(-82.286 -297.337)" fill="#4e4612"/>
      <path id="Path_97" data-name="Path 97" d="M455.659,421.4l.8,7.211-.183-1.081a12.1,12.1,0,0,1,3.124-3.975A18.151,18.151,0,0,1,463.331,421a7.9,7.9,0,0,1,2.981-.9l-.421,8.411a7.5,7.5,0,0,0-5.048.962,9.056,9.056,0,0,0-3.252,3.482,9.438,9.438,0,0,0-1.137,4.452v10.28H448.09V421.452Z" transform="translate(-91.664 -297.33)" fill="#4e4612"/>
      <path id="Path_92" data-name="Path 92" d="M478.86,408.9a3.785,3.785,0,0,1,1.471-3.069,4.929,4.929,0,0,1,3.18-1.2,4.691,4.691,0,0,1,3.093,1.2,3.847,3.847,0,0,1,1.415,3.069,3.752,3.752,0,0,1-1.415,3.037,4.77,4.77,0,0,1-3.093,1.169,4.985,4.985,0,0,1-3.18-1.169,3.689,3.689,0,0,1-1.471-3.037Zm.175,9.318h8.419v26.236h-8.419Z" transform="translate(-97.971 -294.159)" fill="#4e4612"/>
      <path id="Path_98" data-name="Path 98" d="M522.322,445.469a13.682,13.682,0,0,1-4.357,2.226,16.808,16.808,0,0,1-5.136.843,17.554,17.554,0,0,1-7.847-1.654,12.163,12.163,0,0,1-5.168-4.77,14.4,14.4,0,0,1-1.836-7.481,13.6,13.6,0,0,1,1.988-7.481,13.031,13.031,0,0,1,5.2-4.722,14.819,14.819,0,0,1,6.758-1.59,17.933,17.933,0,0,1,6.161.962,15,15,0,0,1,4.484,2.528l-4.086,5.406a12.464,12.464,0,0,0-2.321-1.352,8.021,8.021,0,0,0-3.45-.692,5.938,5.938,0,0,0-3.18.9,6.431,6.431,0,0,0-2.282,2.465,7.488,7.488,0,0,0-.843,3.609,7.235,7.235,0,0,0,.9,3.546,6.694,6.694,0,0,0,2.5,2.552,7.249,7.249,0,0,0,3.76.938,7.951,7.951,0,0,0,2.552-.4,5.86,5.86,0,0,0,2.011-1.105Z" transform="translate(-101.889 -297.481)" fill="#4e4612"/>
      <path id="Path_93" data-name="Path 93" d="M534.2,431.322a13.834,13.834,0,0,1,1.892-7.211,13.435,13.435,0,0,1,5.319-5.017,16.386,16.386,0,0,1,7.871-1.836,15.844,15.844,0,0,1,7.815,1.836,12.8,12.8,0,0,1,5.08,5.017,15.614,15.614,0,0,1,0,14.453,12.9,12.9,0,0,1-5.08,5.08,15.9,15.9,0,0,1-7.95,1.868,17.14,17.14,0,0,1-7.72-1.685,12.561,12.561,0,0,1-5.319-4.873A14.438,14.438,0,0,1,534.2,431.322Zm8.475.064a8.007,8.007,0,0,0,.843,3.7A6.766,6.766,0,0,0,545.8,437.7a5.756,5.756,0,0,0,3.244.962,6.082,6.082,0,0,0,3.427-.962,6.359,6.359,0,0,0,2.226-2.616,9.238,9.238,0,0,0,0-7.425,6.4,6.4,0,0,0-2.226-2.584,6.018,6.018,0,0,0-3.427-.962,5.7,5.7,0,0,0-3.244.962,6.782,6.782,0,0,0-2.282,2.584A7.95,7.95,0,0,0,542.673,431.385Zm15.264-25.305-8.9,8.117h-5.1l4.683-8.117Z" transform="translate(-109.313 -294.456)" fill="#4e4612"/>
      <path id="Path_99" data-name="Path 99" d="M328.76,483.889a8.564,8.564,0,0,1,.676-3.387,9.1,9.1,0,0,1,4.7-4.77,8.745,8.745,0,0,1,6.813,0,9.183,9.183,0,0,1,4.77,4.77,8.745,8.745,0,0,1,0,6.821A8.888,8.888,0,0,1,341,492.014a8.752,8.752,0,0,1-12.211-8.125Zm2.385,0a6.654,6.654,0,0,0,.485,2.568,6.448,6.448,0,0,0,1.383,2.083,6.646,6.646,0,0,0,2.051,1.423,6.312,6.312,0,0,0,7.06-1.407,6.687,6.687,0,0,0,1.375-2.091,6.814,6.814,0,0,0,0-5.128,6.949,6.949,0,0,0-1.375-2.107,6.347,6.347,0,0,0-10.5,2.123A6.814,6.814,0,0,0,331.145,483.889Z" transform="translate(-67.203 -308.592)" fill="#4e4612"/>
      <path id="Path_103" data-name="Path 103" d="M358.756,494.74l-5.486-10.16h2.647l3.7,7.847-1.359-.072,3.411-7.775h2.52l-5.271,10.16Z" transform="translate(-72.227 -310.547)" fill="#4e4612"/>
      <path id="Path_104" data-name="Path 104" d="M368.54,489.317a5.152,5.152,0,0,1,.7-2.671,5.064,5.064,0,0,1,1.956-1.884,5.812,5.812,0,0,1,2.854-.692,5.566,5.566,0,0,1,2.814.692,4.954,4.954,0,0,1,1.892,1.884,5.565,5.565,0,0,1,0,5.343,5.048,5.048,0,0,1-1.892,1.9,5.565,5.565,0,0,1-2.838.7,5.923,5.923,0,0,1-2.83-.652,4.953,4.953,0,0,1-1.94-1.837,5.27,5.27,0,0,1-.716-2.783Zm2.242,0a3.522,3.522,0,0,0,.429,1.733,3.331,3.331,0,0,0,1.145,1.224,2.966,2.966,0,0,0,1.59.453,3.013,3.013,0,0,0,1.646-.453,3.227,3.227,0,0,0,1.129-1.224,3.76,3.76,0,0,0,0-3.458,3.331,3.331,0,0,0-1.129-1.24,3.085,3.085,0,0,0-3.283,0,3.411,3.411,0,0,0-1.145,1.256,3.522,3.522,0,0,0-.382,1.733Z" transform="translate(-75.357 -310.442)" fill="#4e4612"/>
      <path id="Path_105" data-name="Path 105" d="M388.533,494.554a5.8,5.8,0,0,1-2.043-.366,3.976,3.976,0,0,1-1.63-1.113l.93-1.288a5.057,5.057,0,0,0,1.288.9,3.039,3.039,0,0,0,1.288.294,3.117,3.117,0,0,0,.883-.119,1.343,1.343,0,0,0,.652-.406,1.081,1.081,0,0,0,.254-.739,1.049,1.049,0,0,0-.35-.843,2.752,2.752,0,0,0-.859-.485q-.525-.191-1.145-.358a4.253,4.253,0,0,1-1.86-1.121,2.512,2.512,0,0,1-.644-1.741,2.863,2.863,0,0,1,.39-1.463,3.045,3.045,0,0,1,1.185-1.121,3.847,3.847,0,0,1,1.908-.445,6.219,6.219,0,0,1,1.836.254,4.4,4.4,0,0,1,1.526.843l-.882,1.383a2.751,2.751,0,0,0-1.018-.676,2.958,2.958,0,0,0-1.057-.231,2.386,2.386,0,0,0-.8.135,1.43,1.43,0,0,0-.6.382.89.89,0,0,0-.223.628.946.946,0,0,0,.318.8,2.783,2.783,0,0,0,.875.485l1.073.382a5.278,5.278,0,0,1,1.288.572,2.94,2.94,0,0,1,.914.882,2.337,2.337,0,0,1,.35,1.312,3.332,3.332,0,0,1-.421,1.638,2.966,2.966,0,0,1-1.264,1.193,4.634,4.634,0,0,1-2.17.437Z" transform="translate(-78.703 -310.456)" fill="#4e4612"/>
      <path id="Path_101" data-name="Path 101" d="M408.38,492.553V475.309h4.7a10.962,10.962,0,0,1,4.365.8,7.8,7.8,0,0,1,2.894,2.075,8.283,8.283,0,0,1,1.59,2.846,10.105,10.105,0,0,1,.5,3.124,8.65,8.65,0,0,1-.684,3.506,7.9,7.9,0,0,1-1.86,2.647,8.276,8.276,0,0,1-2.719,1.685,9.063,9.063,0,0,1-3.252.58Zm2.314-2.218h2.791a7.7,7.7,0,0,0,2.608-.429,6.17,6.17,0,0,0,2.1-1.24,5.566,5.566,0,0,0,1.4-1.988,7.592,7.592,0,0,0,0-5.486,5.748,5.748,0,0,0-1.431-2.019,6.257,6.257,0,0,0-2.051-1.224,6.909,6.909,0,0,0-2.385-.421h-3.005Z" transform="translate(-83.523 -308.646)" fill="#4e4612"/>
      <path id="Path_106" data-name="Path 106" d="M434.592,494.587a5.9,5.9,0,0,1-2.91-.676,4.77,4.77,0,0,1-1.876-1.86,5.343,5.343,0,0,1-.676-2.711,4.865,4.865,0,0,1,.755-2.647,5.644,5.644,0,0,1,1.988-1.908,5.446,5.446,0,0,1,2.775-.715,4.714,4.714,0,0,1,3.244,1.145,5.955,5.955,0,0,1,1.765,3.18l-8.157,2.862-.525-1.312,6.654-2.457-.461.334a3.179,3.179,0,0,0-.954-1.359,2.56,2.56,0,0,0-1.733-.572,2.974,2.974,0,0,0-2.719,1.59,3.538,3.538,0,0,0-.413,1.749,3.76,3.76,0,0,0,.421,1.789,3.061,3.061,0,0,0,1.169,1.232,3.3,3.3,0,0,0,1.709.437,3.379,3.379,0,0,0,1.248-.238,5.561,5.561,0,0,0,1.153-.62l1.01,1.646a6.867,6.867,0,0,1-1.662.795,5.627,5.627,0,0,1-1.8.318Z" transform="translate(-87.777 -310.442)" fill="#4e4612"/>
      <path id="Path_100" data-name="Path 100" d="M445.85,473.78h2.242v18.46H445.85Z" transform="translate(-91.205 -308.333)" fill="#4e4612"/>
      <path id="Path_102" data-name="Path 102" d="M453.28,479.76a1.121,1.121,0,0,1,.421-.882,1.367,1.367,0,0,1,.914-.358,1.335,1.335,0,0,1,.906.358,1.177,1.177,0,0,1,0,1.781,1.359,1.359,0,0,1-.906.342,1.391,1.391,0,0,1-.914-.342A1.121,1.121,0,0,1,453.28,479.76Zm.143,3.578h2.242v9.874h-2.242Z" transform="translate(-92.728 -309.305)" fill="#4e4612"/>
      <path id="Path_107" data-name="Path 107" d="M464.736,494.74l-5.486-10.16H461.9l3.7,7.847-1.359-.072,3.411-7.775h2.488l-5.271,10.16Z" transform="translate(-93.952 -310.547)" fill="#4e4612"/>
      <path id="Path_108" data-name="Path 108" d="M479.982,494.593a5.876,5.876,0,0,1-2.91-.676,4.818,4.818,0,0,1-1.884-1.86,5.415,5.415,0,0,1-.668-2.711,4.865,4.865,0,0,1,.795-2.647,5.644,5.644,0,0,1,1.972-1.884,5.438,5.438,0,0,1,2.767-.716,4.7,4.7,0,0,1,3.244,1.145,5.907,5.907,0,0,1,1.765,3.18l-8.157,2.862-.525-1.312,6.654-2.457-.453.334a3.179,3.179,0,0,0-.954-1.359,2.584,2.584,0,0,0-1.741-.572,3.014,3.014,0,0,0-1.59.429,3.068,3.068,0,0,0-1.113,1.185,3.617,3.617,0,0,0-.405,1.749,3.76,3.76,0,0,0,.421,1.789,3.06,3.06,0,0,0,1.169,1.232,3.284,3.284,0,0,0,1.7.437,3.419,3.419,0,0,0,1.256-.238,5.563,5.563,0,0,0,1.153-.62l1,1.646a6.812,6.812,0,0,1-1.654.795A5.627,5.627,0,0,1,479.982,494.593Z" transform="translate(-97.082 -310.448)" fill="#4e4612"/>
      <path id="Path_109" data-name="Path 109" d="M493.2,484.475l.215,2.862-.1-.405a4.356,4.356,0,0,1,1.1-1.526,5.291,5.291,0,0,1,1.526-.978,4.23,4.23,0,0,1,1.383-.358l-.1,2.242a3.18,3.18,0,0,0-1.988.421,3.841,3.841,0,0,0-1.336,1.336,3.41,3.41,0,0,0-.493,1.773v4.508H491.2v-9.874Z" transform="translate(-100.5 -310.442)" fill="#4e4612"/>
      <path id="Path_110" data-name="Path 110" d="M505.42,494.526l-4.77-9.946h2.5l3.975,8.825Zm-2.457,4.7,6.511-14.62h2.051l-6.36,14.62Z" transform="translate(-102.438 -310.547)" fill="#4e4612"/>
    </g>
    <line id="Line_6" data-name="Line 6" x2="312" transform="translate(164.5 84.5)" fill="none" stroke="#e1b025" stroke-width="2"/>
    <line id="Line_7" data-name="Line 7" x2="312" transform="translate(164.5 208.5)" fill="none" stroke="#e1b025" stroke-width="2"/>
  </g>
</svg>
